<?xml version="1.0" standalone="no"?>
<!DOCTYPE svg PUBLIC "-//W3C//DTD SVG 20010904//EN"
 "http://www.w3.org/TR/2001/REC-SVG-20010904/DTD/svg10.dtd">
<svg version="1.0" xmlns="http://www.w3.org/2000/svg"
 width="150.000000pt" height="150.000000pt" viewBox="0 0 150.000000 150.000000"
 preserveAspectRatio="xMidYMid meet">
<metadata>
Created by potrace 1.11, written by Peter Selinger 2001-2013
</metadata>
<g transform="translate(0.000000,150.000000) scale(0.100000,-0.100000)"
fill="#000000" stroke="none">
<path d="M249 1256 c-2 -2 -3 -36 -1 -75 l4 -71 69 0 69 0 0 -145 0 -145 70 0
70 0 0 -70 0 -70 -70 0 -70 0 0 -140 0 -140 -70 0 -70 0 0 -75 0 -75 145 0
145 0 0 215 0 215 70 0 70 0 0 75 0 75 -70 0 -70 0 0 215 0 215 -143 0 c-79 0
-146 -2 -148 -4z"/>
<path d="M977 1254 c-4 -4 -7 -101 -7 -216 l0 -208 -70 0 -70 0 0 -75 0 -75
70 0 70 0 0 -215 0 -215 150 0 151 0 -3 73 -3 72 -72 3 -73 3 0 139 0 140 -70
0 -70 0 0 70 0 70 70 0 70 0 0 145 0 145 75 0 76 0 -3 73 -3 72 -141 3 c-77 1
-143 -1 -147 -4z"/>
</g>
</svg>
